<svg width="18" height="14" viewBox="0 0 18 14" fill="none" xmlns="http://www.w3.org/2000/svg">
<path fill-rule="evenodd" clip-rule="evenodd" d="M7.66455 1C7.25034 1 6.91455 1.33579 6.91455 1.75C6.91455 2.16421 7.25034 2.5 7.66455 2.5H16.1646C16.5788 2.5 16.9146 2.16421 16.9146 1.75C16.9146 1.33579 16.5788 1 16.1646 1H7.66455ZM9.66455 6.45321C9.25034 6.45321 8.91455 6.789 8.91455 7.20321C8.91455 7.61743 9.25034 7.95321 9.66455 7.95321H16.1646C16.5788 7.95321 16.9146 7.61743 16.9146 7.20321C16.9146 6.789 16.5788 6.45321 16.1646 6.45321H9.66455ZM10.9146 12.75C10.9146 12.3358 11.2503 12 11.6646 12H16.1646C16.5788 12 16.9146 12.3358 16.9146 12.75C16.9146 13.1642 16.5788 13.5 16.1646 13.5H11.6646C11.2503 13.5 10.9146 13.1642 10.9146 12.75ZM5.89472 11.2356C6.03509 11.3625 6.03509 11.5666 5.89472 11.6892L3.74817 13.5335C3.61286 13.6604 3.38714 13.6604 3.25151 13.5335L1.10528 11.6892C0.964908 11.5668 0.964908 11.3625 1.10528 11.2356C1.24058 11.113 1.46662 11.113 1.60699 11.2356L3.14624 12.5355L3.14371 1.62582C3.14371 1.4489 3.30431 1.30829 3.5 1.30829C3.69569 1.30829 3.85123 1.4489 3.85155 1.62582L3.85408 12.5355L5.39807 11.2356C5.53338 11.113 5.7591 11.113 5.89472 11.2356Z" fill="white"/>
<path d="M5.89472 11.6892L6.05765 11.8788L6.05919 11.8775L5.89472 11.6892ZM5.89472 11.2356L6.06238 11.0501H6.06238L5.89472 11.2356ZM3.74817 13.5335L3.58509 13.3437L3.57715 13.3511L3.74817 13.5335ZM3.25151 13.5335L3.42247 13.3508L3.41445 13.3439L3.25151 13.5335ZM1.10528 11.6892L0.941022 11.8776L0.942338 11.8788L1.10528 11.6892ZM1.10528 11.2356L1.27293 11.421L1.27314 11.4209L1.10528 11.2356ZM1.60699 11.2356L1.4425 11.4239L1.44569 11.4266L1.60699 11.2356ZM3.14624 12.5355L2.98494 12.7265L3.39636 13.0739L3.39624 12.5354L3.14624 12.5355ZM3.14371 1.62582H2.89371V1.62588L3.14371 1.62582ZM3.85155 1.62582L4.10155 1.62576L4.10155 1.62537L3.85155 1.62582ZM3.85408 12.5355L3.60408 12.5355L3.6042 13.0726L4.01509 12.7267L3.85408 12.5355ZM5.39807 11.2356L5.55918 11.427L5.56594 11.4209L5.39807 11.2356ZM7.16455 1.75C7.16455 1.47386 7.38841 1.25 7.66455 1.25V0.75C7.11227 0.75 6.66455 1.19772 6.66455 1.75H7.16455ZM7.66455 2.25C7.38841 2.25 7.16455 2.02614 7.16455 1.75H6.66455C6.66455 2.30228 7.11227 2.75 7.66455 2.75V2.25ZM16.1646 2.25H7.66455V2.75H16.1646V2.25ZM16.6646 1.75C16.6646 2.02614 16.4407 2.25 16.1646 2.25V2.75C16.7168 2.75 17.1646 2.30228 17.1646 1.75H16.6646ZM16.1646 1.25C16.4407 1.25 16.6646 1.47386 16.6646 1.75H17.1646C17.1646 1.19772 16.7168 0.75 16.1646 0.75V1.25ZM7.66455 1.25H16.1646V0.75H7.66455V1.25ZM9.16455 7.20321C9.16455 6.92707 9.38841 6.70321 9.66455 6.70321V6.20321C9.11227 6.20321 8.66455 6.65093 8.66455 7.20321H9.16455ZM9.66455 7.70321C9.38841 7.70321 9.16455 7.47935 9.16455 7.20321H8.66455C8.66455 7.7555 9.11227 8.20321 9.66455 8.20321V7.70321ZM16.1646 7.70321H9.66455V8.20321H16.1646V7.70321ZM16.6646 7.20321C16.6646 7.47935 16.4407 7.70321 16.1646 7.70321V8.20321C16.7168 8.20321 17.1646 7.7555 17.1646 7.20321H16.6646ZM16.1646 6.70321C16.4407 6.70321 16.6646 6.92707 16.6646 7.20321H17.1646C17.1646 6.65093 16.7168 6.20321 16.1646 6.20321V6.70321ZM9.66455 6.70321H16.1646V6.20321H9.66455V6.70321ZM11.6646 11.75C11.1123 11.75 10.6646 12.1977 10.6646 12.75H11.1646C11.1646 12.4739 11.3884 12.25 11.6646 12.25V11.75ZM16.1646 11.75H11.6646V12.25H16.1646V11.75ZM17.1646 12.75C17.1646 12.1977 16.7168 11.75 16.1646 11.75V12.25C16.4407 12.25 16.6646 12.4739 16.6646 12.75H17.1646ZM16.1646 13.75C16.7168 13.75 17.1646 13.3023 17.1646 12.75H16.6646C16.6646 13.0261 16.4407 13.25 16.1646 13.25V13.75ZM11.6646 13.75H16.1646V13.25H11.6646V13.75ZM10.6646 12.75C10.6646 13.3023 11.1123 13.75 11.6646 13.75V13.25C11.3884 13.25 11.1646 13.0261 11.1646 12.75H10.6646ZM6.05919 11.8775C6.31553 11.6535 6.31062 11.2746 6.06238 11.0501L5.72707 11.421C5.74644 11.4386 5.75 11.4546 5.75 11.464C5.75 11.4731 5.74682 11.4864 5.73026 11.5009L6.05919 11.8775ZM3.91109 13.7231L6.05765 11.8788L5.7318 11.4995L3.58525 13.3439L3.91109 13.7231ZM3.08071 13.7161C3.31233 13.9328 3.68759 13.9331 3.91919 13.7159L3.57715 13.3511C3.53813 13.3877 3.46194 13.388 3.42232 13.351L3.08071 13.7161ZM0.942338 11.8788L3.08858 13.7231L3.41445 13.3439L1.26821 11.4996L0.942338 11.8788ZM0.93762 11.0501C0.689516 11.2744 0.684269 11.6539 0.941026 11.8776L1.26952 11.5007C1.25322 11.4865 1.25 11.4733 1.25 11.4641C1.25 11.4546 1.25362 11.4385 1.27293 11.421L0.93762 11.0501ZM1.77146 11.0473C1.53866 10.844 1.16969 10.8399 0.937405 11.0503L1.27314 11.4209C1.31148 11.3861 1.39459 11.382 1.44253 11.4239L1.77146 11.0473ZM3.30754 12.3445L1.76829 11.0446L1.44569 11.4266L2.98494 12.7265L3.30754 12.3445ZM2.89371 1.62588L2.89624 12.5355L3.39624 12.5354L3.39371 1.62576L2.89371 1.62588ZM3.5 1.05829C3.19544 1.05829 2.89371 1.28334 2.89371 1.62582H3.39371C3.39371 1.61653 3.39722 1.60293 3.4143 1.5878C3.43206 1.57206 3.46175 1.55829 3.5 1.55829V1.05829ZM4.10155 1.62537C4.10095 1.28771 3.80957 1.05829 3.5 1.05829V1.55829C3.53784 1.55829 3.56541 1.57173 3.58144 1.58621C3.59689 1.60017 3.60153 1.61409 3.60155 1.62626L4.10155 1.62537ZM4.10408 12.5354L4.10155 1.62576L3.60155 1.62588L3.60408 12.5355L4.10408 12.5354ZM5.23706 11.0444L3.69307 12.3442L4.01509 12.7267L5.55908 11.4268L5.23706 11.0444ZM6.06238 11.0501C5.83167 10.8416 5.46088 10.8413 5.2302 11.0503L5.56594 11.4209C5.60587 11.3847 5.68654 11.3844 5.72707 11.421L6.06238 11.0501Z" fill="white"/>
</svg>
