<svg width="12" height="13" viewBox="0 0 12 13" fill="none" xmlns="http://www.w3.org/2000/svg">
<path fill-rule="evenodd" clip-rule="evenodd" d="M6.76449 5.59598H10.5565C10.9971 5.59598 11.3543 5.95319 11.3543 6.39383C11.3543 6.83447 10.9971 7.19168 10.5565 7.19168H6.76449V11.3433C6.76449 11.7709 6.41785 12.1176 5.99024 12.1176C5.56263 12.1176 5.21598 11.7709 5.21598 11.3433V7.19168H1.44629C1.00565 7.19168 0.648438 6.83447 0.648438 6.39383C0.648438 5.95319 1.00565 5.59598 1.44629 5.59598H5.21598V1.42123C5.21598 0.993618 5.56263 0.646973 5.99024 0.646973C6.41785 0.646973 6.76449 0.993618 6.76449 1.42123V5.59598Z" fill="#616F82"/>
</svg>
