<svg width="18" height="14" viewBox="0 0 18 14" fill="none" xmlns="http://www.w3.org/2000/svg">
<path fill-rule="evenodd" clip-rule="evenodd" d="M7.66455 0.5C7.25034 0.5 6.91455 0.835786 6.91455 1.25C6.91455 1.66421 7.25034 2 7.66455 2H16.1646C16.5788 2 16.9146 1.66421 16.9146 1.25C16.9146 0.835786 16.5788 0.5 16.1646 0.5H7.66455ZM9.66455 5.95321C9.25034 5.95321 8.91455 6.289 8.91455 6.70321C8.91455 7.11743 9.25034 7.45321 9.66455 7.45321H16.1646C16.5788 7.45321 16.9146 7.11743 16.9146 6.70321C16.9146 6.289 16.5788 5.95321 16.1646 5.95321H9.66455ZM10.9146 12.25C10.9146 11.8358 11.2503 11.5 11.6646 11.5H16.1646C16.5788 11.5 16.9146 11.8358 16.9146 12.25C16.9146 12.6642 16.5788 13 16.1646 13H11.6646C11.2503 13 10.9146 12.6642 10.9146 12.25ZM5.89472 10.7356C6.03509 10.8625 6.03509 11.0666 5.89472 11.1892L3.74817 13.0335C3.61286 13.1604 3.38714 13.1604 3.25151 13.0335L1.10528 11.1892C0.964908 11.0668 0.964908 10.8625 1.10528 10.7356C1.24058 10.613 1.46662 10.613 1.60699 10.7356L3.14624 12.0355L3.14371 1.12582C3.14371 0.948905 3.30431 0.808289 3.5 0.808289C3.69569 0.808289 3.85123 0.948905 3.85155 1.12582L3.85408 12.0355L5.39807 10.7356C5.53338 10.613 5.7591 10.613 5.89472 10.7356Z" fill="#616F82"/>
<path d="M5.89472 11.1892L6.05765 11.3788L6.05919 11.3775L5.89472 11.1892ZM5.89472 10.7356L6.06238 10.5501H6.06238L5.89472 10.7356ZM3.74817 13.0335L3.58509 12.8437L3.57715 12.8511L3.74817 13.0335ZM3.25151 13.0335L3.42247 12.8508L3.41445 12.8439L3.25151 13.0335ZM1.10528 11.1892L0.941022 11.3776L0.942338 11.3788L1.10528 11.1892ZM1.10528 10.7356L1.27293 10.921L1.27314 10.9209L1.10528 10.7356ZM1.60699 10.7356L1.4425 10.9239L1.44569 10.9266L1.60699 10.7356ZM3.14624 12.0355L2.98494 12.2265L3.39636 12.5739L3.39624 12.0354L3.14624 12.0355ZM3.14371 1.12582H2.89371V1.12588L3.14371 1.12582ZM3.85155 1.12582L4.10155 1.12576L4.10155 1.12537L3.85155 1.12582ZM3.85408 12.0355L3.60408 12.0355L3.6042 12.5726L4.01509 12.2267L3.85408 12.0355ZM5.39807 10.7356L5.55918 10.927L5.56594 10.9209L5.39807 10.7356ZM7.16455 1.25C7.16455 0.973858 7.38841 0.75 7.66455 0.75V0.25C7.11227 0.25 6.66455 0.697715 6.66455 1.25H7.16455ZM7.66455 1.75C7.38841 1.75 7.16455 1.52614 7.16455 1.25H6.66455C6.66455 1.80228 7.11227 2.25 7.66455 2.25V1.75ZM16.1646 1.75H7.66455V2.25H16.1646V1.75ZM16.6646 1.25C16.6646 1.52614 16.4407 1.75 16.1646 1.75V2.25C16.7168 2.25 17.1646 1.80228 17.1646 1.25H16.6646ZM16.1646 0.75C16.4407 0.75 16.6646 0.973858 16.6646 1.25H17.1646C17.1646 0.697715 16.7168 0.25 16.1646 0.25V0.75ZM7.66455 0.75H16.1646V0.25H7.66455V0.75ZM9.16455 6.70321C9.16455 6.42707 9.38841 6.20321 9.66455 6.20321V5.70321C9.11227 5.70321 8.66455 6.15093 8.66455 6.70321H9.16455ZM9.66455 7.20321C9.38841 7.20321 9.16455 6.97935 9.16455 6.70321H8.66455C8.66455 7.2555 9.11227 7.70321 9.66455 7.70321V7.20321ZM16.1646 7.20321H9.66455V7.70321H16.1646V7.20321ZM16.6646 6.70321C16.6646 6.97935 16.4407 7.20321 16.1646 7.20321V7.70321C16.7168 7.70321 17.1646 7.2555 17.1646 6.70321H16.6646ZM16.1646 6.20321C16.4407 6.20321 16.6646 6.42707 16.6646 6.70321H17.1646C17.1646 6.15093 16.7168 5.70321 16.1646 5.70321V6.20321ZM9.66455 6.20321H16.1646V5.70321H9.66455V6.20321ZM11.6646 11.25C11.1123 11.25 10.6646 11.6977 10.6646 12.25H11.1646C11.1646 11.9739 11.3884 11.75 11.6646 11.75V11.25ZM16.1646 11.25H11.6646V11.75H16.1646V11.25ZM17.1646 12.25C17.1646 11.6977 16.7168 11.25 16.1646 11.25V11.75C16.4407 11.75 16.6646 11.9739 16.6646 12.25H17.1646ZM16.1646 13.25C16.7168 13.25 17.1646 12.8023 17.1646 12.25H16.6646C16.6646 12.5261 16.4407 12.75 16.1646 12.75V13.25ZM11.6646 13.25H16.1646V12.75H11.6646V13.25ZM10.6646 12.25C10.6646 12.8023 11.1123 13.25 11.6646 13.25V12.75C11.3884 12.75 11.1646 12.5261 11.1646 12.25H10.6646ZM6.05919 11.3775C6.31553 11.1535 6.31062 10.7746 6.06238 10.5501L5.72707 10.921C5.74644 10.9386 5.75 10.9546 5.75 10.964C5.75 10.9731 5.74682 10.9864 5.73026 11.0009L6.05919 11.3775ZM3.91109 13.2231L6.05765 11.3788L5.7318 10.9995L3.58525 12.8439L3.91109 13.2231ZM3.08071 13.2161C3.31233 13.4328 3.68759 13.4331 3.91919 13.2159L3.57715 12.8511C3.53813 12.8877 3.46194 12.888 3.42232 12.851L3.08071 13.2161ZM0.942338 11.3788L3.08858 13.2231L3.41445 12.8439L1.26821 10.9996L0.942338 11.3788ZM0.93762 10.5501C0.689516 10.7744 0.684269 11.1539 0.941026 11.3776L1.26952 11.0007C1.25322 10.9865 1.25 10.9733 1.25 10.9641C1.25 10.9546 1.25362 10.9385 1.27293 10.921L0.93762 10.5501ZM1.77146 10.5473C1.53866 10.344 1.16969 10.3399 0.937405 10.5503L1.27314 10.9209C1.31148 10.8861 1.39459 10.882 1.44253 10.9239L1.77146 10.5473ZM3.30754 11.8445L1.76829 10.5446L1.44569 10.9266L2.98494 12.2265L3.30754 11.8445ZM2.89371 1.12588L2.89624 12.0355L3.39624 12.0354L3.39371 1.12576L2.89371 1.12588ZM3.5 0.558289C3.19544 0.558289 2.89371 0.783336 2.89371 1.12582H3.39371C3.39371 1.11653 3.39722 1.10293 3.4143 1.0878C3.43206 1.07206 3.46175 1.05829 3.5 1.05829V0.558289ZM4.10155 1.12537C4.10095 0.787714 3.80957 0.558289 3.5 0.558289V1.05829C3.53784 1.05829 3.56541 1.07173 3.58144 1.08621C3.59689 1.10017 3.60153 1.11409 3.60155 1.12626L4.10155 1.12537ZM4.10408 12.0354L4.10155 1.12576L3.60155 1.12588L3.60408 12.0355L4.10408 12.0354ZM5.23706 10.5444L3.69307 11.8442L4.01509 12.2267L5.55908 10.9268L5.23706 10.5444ZM6.06238 10.5501C5.83167 10.3416 5.46088 10.3413 5.2302 10.5503L5.56594 10.9209C5.60587 10.8847 5.68654 10.8844 5.72707 10.921L6.06238 10.5501Z" fill="#616F82"/>
</svg>
