<svg width="19" height="17" viewBox="0 0 19 17" fill="none" xmlns="http://www.w3.org/2000/svg">
<path fill-rule="evenodd" clip-rule="evenodd" d="M7.58069 0.867947C8.22518 -0.289316 9.85622 -0.289316 10.5007 0.867947L10.5008 0.868023L17.8609 14.0888L17.861 14.0889C18.4823 15.2047 17.7253 16.6646 16.4009 16.6646H1.68047C0.356099 16.6646 -0.400908 15.2047 0.220413 14.0889L0.220455 14.0888L7.58064 0.868023L7.58069 0.867947ZM8.57915 1.424L1.21896 14.6448L1.21892 14.6449C0.987054 15.0612 1.29835 15.5217 1.68047 15.5217H16.4009C16.7831 15.5217 17.0943 15.0612 16.8625 14.6449L16.8624 14.6448L9.50225 1.424C9.29349 1.04914 8.78791 1.04914 8.57915 1.424ZM9.04168 5.27547C9.51287 5.27547 9.89398 5.68697 9.88013 6.18223L9.74154 11.2659C9.73115 11.6665 9.41933 11.9833 9.03822 11.9833C8.65711 11.9833 8.34529 11.6628 8.3349 11.2659L8.19978 6.18223C8.18938 5.68697 8.56703 5.27547 9.04168 5.27547ZM8.15625 13.5527C8.15625 14.0589 8.54775 14.4704 9.02934 14.4704C9.51092 14.4704 9.90243 14.0589 9.90243 13.5527C9.90243 13.0465 9.51092 12.635 9.02934 12.635C8.54775 12.635 8.15625 13.0465 8.15625 13.5527Z" fill="#EC8532"/>
</svg>
